<svg width="15" height="15" viewBox="0 0 15 15" fill="none" xmlns="http://www.w3.org/2000/svg">
<path d="M12.4109 1.77706L10.4159 1.91885L10.345 0.921371C10.3387 0.833188 10.2977 0.751107 10.2309 0.693184C10.1641 0.635261 10.077 0.606241 9.98886 0.612509C9.90068 0.618777 9.8186 0.659819 9.76068 0.726606C9.70275 0.793393 9.67373 0.880454 9.68 0.968637L9.7509 1.96612L5.09598 2.29698L5.02508 1.2995C5.01881 1.21131 4.97777 1.12923 4.91098 1.07131C4.84419 1.01339 4.75713 0.984368 4.66895 0.990636C4.58077 0.996904 4.49869 1.03795 4.44076 1.10473C4.38284 1.17152 4.35382 1.25858 4.36009 1.34676L4.43099 2.34425L2.43602 2.48604C1.9953 2.5179 1.58522 2.72326 1.29571 3.05707C1.0062 3.39088 0.860913 3.82589 0.891712 4.26668L1.50617 12.9115C1.53802 13.3523 1.74338 13.7623 2.07719 14.0518C2.411 14.3414 2.84601 14.4866 3.28681 14.4558L13.2616 13.7469C13.7024 13.7152 14.1126 13.5099 14.4022 13.176C14.6917 12.8422 14.8369 12.4071 14.8059 11.9662L14.1915 3.32136C14.1598 2.88058 13.9545 2.47039 13.6206 2.18085C13.2868 1.8913 12.8517 1.74608 12.4109 1.77706ZM14.141 12.0135C14.1598 12.278 14.0727 12.5392 13.8989 12.7396C13.7252 12.9399 13.4789 13.0631 13.2144 13.0819L3.23954 13.7909C2.97499 13.8097 2.71381 13.7226 2.51345 13.5488C2.31309 13.3751 2.18996 13.1288 2.17116 12.8643L1.7694 7.21187L13.7392 6.36108L14.141 12.0135ZM13.6919 5.69609L1.72213 6.54688L1.5567 4.21942C1.51757 3.6688 1.93135 3.19026 2.48329 3.15103L4.47825 3.00924L4.54915 4.00672C4.55542 4.0949 4.59646 4.17698 4.66325 4.23491C4.73004 4.29283 4.8171 4.32185 4.90528 4.31558C4.99346 4.30931 5.07554 4.26827 5.13347 4.20148C5.19139 4.1347 5.22041 4.04764 5.21414 3.95945L5.14324 2.96197L9.79817 2.63111L9.86906 3.62859C9.87533 3.71678 9.91637 3.79886 9.98316 3.85678C10.0499 3.9147 10.137 3.94372 10.2252 3.93745C10.3134 3.93119 10.3955 3.89014 10.4534 3.82336C10.5113 3.75657 10.5403 3.66951 10.5341 3.58133L10.4632 2.58384L12.4581 2.44205C12.7227 2.42324 12.9839 2.5103 13.1842 2.68407C13.3846 2.85784 13.5077 3.10408 13.5265 3.36863L13.6919 5.69609Z" fill="#AAAAAA"/>
</svg>
