<svg width="45" height="47" viewBox="0 0 45 47" fill="none" xmlns="http://www.w3.org/2000/svg">
<path d="M39.8891 17.4781L39.8612 17.4502C39.8589 17.4486 39.8571 17.4465 39.856 17.4441L22.4123 0L4.96874 17.4437C4.96673 17.4457 4.9656 17.4484 4.96358 17.4497L4.93479 17.4776C2.26744 20.16 0.573204 23.6569 0.121429 27.4127C-0.330346 31.1686 0.486263 34.9676 2.44143 38.206C4.39661 41.4445 7.37815 43.9365 10.9121 45.2856C14.446 46.6348 18.3296 46.7641 21.9453 45.6526C22.2496 45.5595 22.5748 45.5595 22.8791 45.6526C26.4945 46.7636 30.3778 46.6344 33.9116 45.285C37.4453 43.9356 40.4265 41.4438 42.3815 38.2056C44.3366 34.9674 45.1533 31.1686 44.7017 27.413C44.2501 23.6574 42.5561 20.1604 39.8891 17.4781ZM11.1714 28.9811C11.0865 29.066 11.0192 29.1669 10.9732 29.2777C10.9273 29.3885 10.9036 29.5074 10.9037 29.6275C10.9347 32.7062 11.8048 35.7181 13.4203 38.3392C13.457 38.3986 13.4739 38.4682 13.4687 38.5378C13.4635 38.6074 13.4364 38.6736 13.3913 38.727C13.3462 38.7804 13.2853 38.818 13.2175 38.8347C13.1497 38.8513 13.0783 38.8462 13.0136 38.8198C11.7991 38.309 10.6958 37.5664 9.76542 36.6337C7.85871 34.7266 6.78679 32.1407 6.78506 29.4439C6.78332 26.7472 7.85193 24.1599 9.75621 22.2505L22.4123 9.59562L35.0677 22.2505C36.9723 24.1597 38.0413 26.747 38.0394 29.4439C38.0379 32.1407 36.9658 34.7266 35.0589 36.6337C34.1285 37.5664 33.0253 38.309 31.811 38.8198C31.7461 38.8462 31.6747 38.8513 31.6069 38.8347C31.5391 38.818 31.4783 38.7802 31.4331 38.727C31.388 38.6736 31.3608 38.6074 31.3556 38.5376C31.3504 38.468 31.3673 38.3984 31.404 38.3389C33.0198 35.7181 33.8904 32.7062 33.9219 29.6275C33.9219 29.5074 33.898 29.3885 33.8519 29.2775C33.8057 29.1664 33.7381 29.0658 33.653 28.9808L27.6669 22.6314C27.6072 22.5817 27.5322 22.5544 27.4545 22.5544C27.377 22.5544 27.3018 22.5817 27.2423 22.6314C27.1826 22.681 27.1425 22.7501 27.1286 22.8265C27.1146 22.9029 27.1279 22.9815 27.1662 23.049C29.4911 27.2562 27.4919 33.2993 24.158 36.6337L24.1404 36.6512C23.6802 37.1064 23.059 37.3616 22.4118 37.3614C21.7645 37.3612 21.1435 37.1055 20.6836 36.6501L20.6675 36.6337C17.3323 33.2993 15.3341 27.2569 17.6594 23.0499C17.6976 22.9824 17.711 22.9038 17.697 22.8274C17.6832 22.751 17.6429 22.6819 17.5833 22.6323C17.5238 22.5826 17.4486 22.5553 17.371 22.5553C17.2934 22.5553 17.2183 22.5826 17.1587 22.6323L11.1714 28.9811Z" fill="#D1D1D1"/>
</svg>
