<svg width="36" height="40" viewBox="0 0 36 40" fill="none" xmlns="http://www.w3.org/2000/svg">
<path d="M28.1675 0C26.2193 0.00219635 24.3515 0.776943 22.974 2.15426C21.5964 3.53158 20.8214 5.399 20.8193 7.34684V12.2445H14.6961V7.34684C14.6861 5.40488 13.9076 3.54587 12.5306 2.1762C11.1537 0.806534 9.29036 0.0376565 7.34804 0.0376565C5.40571 0.0376565 3.54239 0.806534 2.16545 2.1762C0.788512 3.54587 0.0099547 5.40488 0 7.34684V31.8363C0.0099547 33.7782 0.788512 35.6372 2.16545 37.0068C3.54239 38.3765 5.40571 39.1455 7.34804 39.1455C9.29036 39.1455 11.1537 38.3765 12.5306 37.0068C13.9076 35.6372 14.6861 33.7782 14.6961 31.8363V29.3873L12.2467 28.1628V31.8363C12.2467 32.8051 11.9594 33.752 11.4211 34.5575C10.8828 35.3629 10.1177 35.9906 9.22257 36.3614C8.32742 36.732 7.34244 36.8291 6.39216 36.6401C5.4419 36.4509 4.56903 35.9846 3.88393 35.2996C3.19884 34.6146 2.73228 33.7418 2.54328 32.7917C2.3543 31.8415 2.45133 30.8568 2.82213 29.9617C3.19293 29.0669 3.82086 28.3018 4.62649 27.7637C5.4321 27.2255 6.37925 26.9383 7.34813 26.9383H28.1675C29.1364 26.9383 30.0835 27.2255 30.889 27.7639C31.6946 28.302 32.3225 29.0669 32.6933 29.9619C33.0641 30.8569 33.1612 31.8417 32.972 32.7917C32.7831 33.742 32.3165 34.6146 31.6313 35.2996C30.9463 35.9846 30.0735 36.4511 29.1231 36.6401C28.1729 36.8291 27.1879 36.732 26.2927 36.3614C25.3977 35.9906 24.6326 35.3629 24.0942 34.5575C23.5561 33.752 23.2687 32.8051 23.2687 31.8363V29.3873L20.8193 28.1628V31.8363C20.8294 33.7782 21.6078 35.6372 22.9848 37.0068C24.3618 38.3765 26.2251 39.1455 28.1673 39.1455C30.1096 39.1455 31.973 38.3765 33.3499 37.0068C34.7269 35.6372 35.5054 33.7782 35.5154 31.8363V7.34684C35.5133 5.39903 34.7383 3.53164 33.3608 2.15433C31.9834 0.777016 30.1156 0.00224742 28.1675 0ZM23.2687 7.34684C23.2687 6.37811 23.5559 5.43113 24.0942 4.62566C24.6326 3.82018 25.3975 3.19237 26.2927 2.82163C27.1877 2.4509 28.1727 2.35387 29.1231 2.54284C30.0733 2.7318 30.9461 3.19826 31.6313 3.88324C32.3165 4.56821 32.7831 5.44094 32.972 6.39104C33.1612 7.34115 33.0641 8.32595 32.6933 9.22093C32.3225 10.1159 31.6946 10.8809 30.8892 11.4191C30.0835 11.9573 29.1364 12.2445 28.1675 12.2445H23.2687V7.34684ZM7.34813 2.44895C8.64688 2.45048 9.89199 2.96701 10.8103 3.88521C11.7287 4.80341 12.2452 6.04832 12.2467 7.34684V12.2445H7.34813C6.70224 12.2486 6.06193 12.1249 5.46404 11.8806C4.86616 11.6362 4.32249 11.2761 3.86434 10.8209C3.40618 10.3657 3.04258 9.82442 2.79447 9.22817C2.54637 8.63194 2.41863 7.99252 2.41863 7.34674C2.41863 6.70095 2.54637 6.06154 2.79447 5.4653C3.04258 4.86905 3.40618 4.32775 3.86434 3.87255C4.32249 3.41735 4.86616 3.05722 5.46404 2.8129C6.06193 2.56858 6.70224 2.4449 7.34813 2.44895ZM28.1675 24.489H7.34813C5.53955 24.4874 3.79445 25.1554 2.44938 26.3643V12.8181C3.79447 14.0268 5.53957 14.6949 7.34813 14.6933H28.1675C29.976 14.6948 31.7211 14.0268 33.066 12.8181V26.3643C31.7211 25.1554 29.976 24.4874 28.1675 24.489Z" fill="#BDBDBD"/>
</svg>
