<svg width="36" height="33" viewBox="0 0 36 33" fill="none" xmlns="http://www.w3.org/2000/svg">
<path d="M13.3005 10.5183C13.4531 10.3666 13.574 10.1863 13.6566 9.98768C13.7391 9.78907 13.7815 9.57609 13.7813 9.36102C13.7811 9.14596 13.7384 8.93305 13.6555 8.73457C13.5727 8.53609 13.4514 8.35597 13.2986 8.20456C13.1459 8.05318 12.9647 7.93351 12.7654 7.85247C12.5662 7.77143 12.3529 7.73061 12.1379 7.73236C11.9228 7.73412 11.7102 7.77842 11.5124 7.8627C11.3145 7.947 11.1353 8.06961 10.985 8.22348C9.62696 9.59535 8.70612 11.339 8.33888 13.2342C7.97164 15.1293 8.17448 17.0907 8.9218 18.8706C9.6691 20.6504 10.9273 22.1687 12.5374 23.2336C14.1474 24.2986 16.0371 24.8623 17.9674 24.8534C19.8977 24.8446 21.7822 24.2637 23.3825 23.1841C24.9827 22.1044 26.227 20.5746 26.9579 18.788C27.6889 17.0014 27.8738 15.0381 27.4891 13.1465C27.1046 11.2548 26.1679 9.51962 24.7973 8.16025C24.6453 8.00956 24.465 7.89031 24.2667 7.8093C24.0686 7.7283 23.8565 7.68712 23.6422 7.68811C23.4282 7.68911 23.2164 7.73226 23.019 7.81511C22.8216 7.89795 22.6425 8.01887 22.4917 8.17096C22.341 8.32303 22.2218 8.50331 22.1409 8.70148C22.0598 8.89965 22.0187 9.11184 22.0196 9.32593C22.0206 9.54 22.0638 9.75179 22.1465 9.94921C22.2295 10.1466 22.3505 10.3258 22.5025 10.4765C23.4164 11.3823 24.0414 12.5388 24.2981 13.7997C24.5548 15.0606 24.4317 16.3694 23.9447 17.5605C23.4577 18.7515 22.6284 19.7714 21.5617 20.4912C20.4951 21.2109 19.239 21.5982 17.9522 21.6042C16.6653 21.6101 15.4057 21.2342 14.3325 20.5243C13.2593 19.8143 12.4207 18.802 11.9227 17.6155C11.4248 16.429 11.2898 15.1214 11.535 13.8582C11.7802 12.5949 12.3944 11.4328 13.3 10.5186L13.3005 10.5183Z" fill="#BDBDBD"/>
<path d="M24.7695 0.000214954C23.6988 0.00215218 22.6391 0.21645 21.6517 0.630706C20.6643 1.04496 19.7689 1.65095 19.0172 2.41358C18.7127 2.72024 18.299 2.89358 17.8668 2.89554C17.4347 2.89751 17.0193 2.72794 16.712 2.42404C15.1753 0.904956 13.0988 0.0573993 10.9381 0.067294C8.77731 0.077189 6.70867 0.943726 5.18597 2.47682C2.69257 4.99539 1.00184 8.19666 0.327496 11.676C-0.346843 15.1553 0.0254829 18.7564 1.39742 22.0241C2.76934 25.2919 5.07929 28.0795 8.03523 30.0346C10.9912 31.9898 14.4604 33.0247 18.0045 33.0084C21.5485 32.9923 25.0081 31.9257 27.946 29.9436C30.8841 27.9616 33.1684 25.1529 34.5104 21.8729C35.8524 18.5928 36.1919 14.9883 35.4857 11.5153C34.7797 8.04235 33.0598 4.85665 30.5434 2.36097C29.785 1.60526 28.8841 1.00749 27.8929 0.602269C26.9019 0.197044 25.8402 -0.00758654 24.7695 0.000214954ZM28.2483 4.67667C30.3095 6.71901 31.7187 9.32666 32.2977 12.1699C32.8768 15.0131 32.5999 17.9642 31.5017 20.65C30.4036 23.3359 28.5338 25.6356 26.1285 27.2588C23.7233 28.8819 20.8908 29.7553 17.9892 29.7685C15.0877 29.7819 12.2473 28.9345 9.82735 27.3334C7.40739 25.7325 5.51652 23.4497 4.39387 20.7741C3.27122 18.0985 2.96722 15.15 3.52027 12.3016C4.07333 9.45317 5.45863 6.83271 7.50098 4.7716C8.41469 3.85175 9.65593 3.33184 10.9524 3.32589C12.249 3.31995 13.4949 3.82846 14.417 4.7399C15.3389 5.65141 16.5848 6.15997 17.8812 6.15408C19.1776 6.14817 20.4187 5.62824 21.3322 4.70837C22.2451 3.78716 23.4867 3.26629 24.7836 3.26034C26.0805 3.2544 27.3267 3.76386 28.248 4.67667" fill="#BDBDBD"/>
<path d="M17.9225 17.9832C19.3853 17.9832 20.571 16.7974 20.571 15.3347C20.571 13.872 19.3853 12.6862 17.9225 12.6862C16.4598 12.6862 15.274 13.872 15.274 15.3347C15.274 16.7974 16.4598 17.9832 17.9225 17.9832Z" fill="#00AB9E"/>
</svg>
