<svg width="36" height="33" viewBox="0 0 36 33" fill="none" xmlns="http://www.w3.org/2000/svg">
<path d="M13.3006 10.5183C13.4531 10.3666 13.5741 10.1863 13.6566 9.98768C13.7391 9.78907 13.7815 9.57609 13.7813 9.36102C13.7811 9.14596 13.7384 8.93305 13.6555 8.73457C13.5727 8.53609 13.4514 8.35597 13.2987 8.20456C13.1459 8.05318 12.9647 7.93351 12.7655 7.85247C12.5663 7.77143 12.353 7.73061 12.1379 7.73236C11.9229 7.73412 11.7103 7.77842 11.5124 7.8627C11.3145 7.947 11.1353 8.06961 10.985 8.22348C9.62699 9.59535 8.70615 11.339 8.33891 13.2342C7.97167 15.1293 8.17451 17.0907 8.92183 18.8706C9.66913 20.6504 10.9273 22.1687 12.5374 23.2336C14.1475 24.2986 16.0371 24.8623 17.9674 24.8534C19.8977 24.8446 21.7823 24.2637 23.3825 23.1841C24.9827 22.1044 26.227 20.5746 26.9579 18.788C27.689 17.0014 27.8739 15.0381 27.4891 13.1465C27.1046 11.2548 26.1679 9.51962 24.7973 8.16025C24.6453 8.00956 24.465 7.89031 24.2667 7.8093C24.0686 7.7283 23.8565 7.68712 23.6423 7.68811C23.4282 7.68911 23.2164 7.73226 23.019 7.81511C22.8216 7.89795 22.6425 8.01887 22.4917 8.17096C22.3411 8.32303 22.2218 8.50331 22.1409 8.70148C22.0599 8.89965 22.0187 9.11184 22.0196 9.32593C22.0206 9.54 22.0638 9.75179 22.1466 9.94921C22.2295 10.1466 22.3505 10.3258 22.5025 10.4765C23.4164 11.3823 24.0414 12.5388 24.2981 13.7997C24.5548 15.0606 24.4318 16.3694 23.9447 17.5605C23.4577 18.7515 22.6285 19.7714 21.5617 20.4912C20.4951 21.2109 19.239 21.5982 17.9522 21.6042C16.6654 21.6101 15.4057 21.2342 14.3325 20.5243C13.2593 19.8143 12.4207 18.802 11.9227 17.6155C11.4248 16.429 11.2899 15.1214 11.535 13.8582C11.7802 12.5949 12.3944 11.4328 13.3001 10.5186L13.3006 10.5183Z" fill="#98A2B3"/>
<path d="M24.7696 0.000214954C23.6989 0.00215218 22.6391 0.21645 21.6517 0.630706C20.6643 1.04496 19.7689 1.65095 19.0173 2.41358C18.7127 2.72024 18.2991 2.89358 17.8669 2.89554C17.4347 2.89751 17.0193 2.72794 16.712 2.42404C15.1753 0.904956 13.0989 0.0573993 10.9381 0.067294C8.77734 0.077189 6.70871 0.943726 5.186 2.47682C2.6926 4.99539 1.00187 8.19666 0.327526 11.676C-0.346813 15.1553 0.0255134 18.7564 1.39745 22.0241C2.76937 25.2919 5.07932 28.0795 8.03526 30.0346C10.9912 31.9898 14.4605 33.0247 18.0045 33.0084C21.5485 32.9923 25.0081 31.9257 27.946 29.9436C30.8841 27.9616 33.1685 25.1529 34.5105 21.8729C35.8524 18.5928 36.1919 14.9883 35.4857 11.5153C34.7797 8.04235 33.0598 4.85665 30.5435 2.36097C29.785 1.60526 28.8841 1.00749 27.8929 0.602269C26.9019 0.197044 25.8403 -0.00758654 24.7696 0.000214954ZM28.2483 4.67667C30.3096 6.71901 31.7187 9.32666 32.2978 12.1699C32.8768 15.0131 32.5999 17.9642 31.5018 20.65C30.4036 23.3359 28.5338 25.6356 26.1285 27.2588C23.7234 28.8819 20.8908 29.7553 17.9892 29.7685C15.0877 29.7819 12.2473 28.9345 9.82738 27.3334C7.40742 25.7325 5.51655 23.4497 4.3939 20.7741C3.27126 18.0985 2.96725 15.15 3.5203 12.3016C4.07336 9.45317 5.45866 6.83271 7.50101 4.7716C8.41472 3.85175 9.65596 3.33184 10.9525 3.32589C12.249 3.31995 13.495 3.82846 14.4171 4.7399C15.339 5.65141 16.5848 6.15997 17.8813 6.15408C19.1777 6.14817 20.4187 5.62824 21.3323 4.70837C22.2452 3.78716 23.4867 3.26629 24.7836 3.26034C26.0805 3.2544 27.3267 3.76386 28.248 4.67667" fill="#BDBDBD"/>
<path d="M17.9226 17.9832C19.3854 17.9832 20.5711 16.7974 20.5711 15.3347C20.5711 13.872 19.3854 12.6862 17.9226 12.6862C16.4598 12.6862 15.2741 13.872 15.2741 15.3347C15.2741 16.7974 16.4598 17.9832 17.9226 17.9832Z" fill="#BDBDBD"/>
</svg>
