<svg width="14" height="14" viewBox="0 0 14 14" fill="none" xmlns="http://www.w3.org/2000/svg">
<path d="M2.33333 7.58332C2.6555 7.58332 2.91667 7.32216 2.91667 6.99999C2.91667 6.67782 2.6555 6.41666 2.33333 6.41666C2.01117 6.41666 1.75 6.67782 1.75 6.99999C1.75 7.32216 2.01117 7.58332 2.33333 7.58332Z" stroke="#AAAAAA" stroke-width="2"/>
<path d="M6.99999 7.58332C7.32216 7.58332 7.58332 7.32216 7.58332 6.99999C7.58332 6.67782 7.32216 6.41666 6.99999 6.41666C6.67782 6.41666 6.41666 6.67782 6.41666 6.99999C6.41666 7.32216 6.67782 7.58332 6.99999 7.58332Z" stroke="#AAAAAA" stroke-width="2"/>
<path d="M11.6667 7.58332C11.9888 7.58332 12.25 7.32216 12.25 6.99999C12.25 6.67782 11.9888 6.41666 11.6667 6.41666C11.3445 6.41666 11.0833 6.67782 11.0833 6.99999C11.0833 7.32216 11.3445 7.58332 11.6667 7.58332Z" stroke="#AAAAAA" stroke-width="2"/>
</svg>
