<svg width="62" height="62" viewBox="0 0 62 62" fill="none" xmlns="http://www.w3.org/2000/svg">
<rect width="62" height="62" rx="31" fill="#EAF2FE"/>
<path fill-rule="evenodd" clip-rule="evenodd" d="M41.3333 23.2501C41.3333 25.9907 40.2446 28.619 38.3068 30.5569C36.3689 32.4947 33.7406 33.5834 31 33.5834C28.2594 33.5834 25.6311 32.4947 23.6932 30.5569C21.7553 28.619 20.6667 25.9907 20.6667 23.2501C20.6667 20.5095 21.7553 17.8812 23.6932 15.9433C25.6311 14.0054 28.2594 12.9167 31 12.9167C33.7406 12.9167 36.3689 14.0054 38.3068 15.9433C40.2446 17.8812 41.3333 20.5095 41.3333 23.2501ZM36.1667 23.2501C36.1667 24.6204 35.6223 25.9345 34.6534 26.9035C33.6844 27.8724 32.3703 28.4167 31 28.4167C29.6297 28.4167 28.3155 27.8724 27.3466 26.9035C26.3777 25.9345 25.8333 24.6204 25.8333 23.2501C25.8333 21.8798 26.3777 20.5656 27.3466 19.5967C28.3155 18.6278 29.6297 18.0834 31 18.0834C32.3703 18.0834 33.6844 18.6278 34.6534 19.5967C35.6223 20.5656 36.1667 21.8798 36.1667 23.2501Z" fill="#AAAAAA"/>
<path fill-rule="evenodd" clip-rule="evenodd" d="M31 2.58337C15.3062 2.58337 2.58333 15.3063 2.58333 31C2.58333 46.6938 15.3062 59.4167 31 59.4167C46.6937 59.4167 59.4167 46.6938 59.4167 31C59.4167 15.3063 46.6937 2.58337 31 2.58337ZM7.74999 31C7.74999 36.3992 9.59191 41.3695 12.679 45.3169C14.847 42.4698 17.6439 40.1625 20.8512 38.5752C24.0585 36.9879 27.5893 36.1636 31.1679 36.1667C34.7002 36.1634 38.1866 36.9663 41.3616 38.5144C44.5365 40.0625 47.3162 42.3148 49.4889 45.0999C51.7272 42.1642 53.2343 38.7377 53.8855 35.1039C54.5366 31.4701 54.3131 27.7335 53.2334 24.2032C52.1538 20.673 50.249 17.4506 47.6767 14.8026C45.1044 12.1547 41.9385 10.1573 38.441 8.97585C34.9435 7.79437 31.2149 7.4627 27.5638 8.0083C23.9127 8.55391 20.444 9.96109 17.4446 12.1134C14.4453 14.2658 12.0017 17.1014 10.3158 20.3856C8.63 23.6699 7.75046 27.3084 7.74999 31ZM31 54.25C25.6627 54.2581 20.4865 52.4219 16.3473 49.0524C18.0134 46.6673 20.231 44.7199 22.8113 43.376C25.3917 42.032 28.2585 41.3313 31.1679 41.3334C34.041 41.3311 36.8732 42.0143 39.4292 43.3262C41.9853 44.6382 44.1914 46.541 45.8645 48.8767C41.6932 52.3557 36.4317 54.2577 31 54.25Z" fill="#AAAAAA"/>
</svg>
